<svg width="19" height="20" viewBox="0 0 19 20" fill="none" xmlns="http://www.w3.org/2000/svg">
<path fill-rule="evenodd" clip-rule="evenodd" d="M13.4739 17.0199C13.3833 17.0199 13.2944 16.9981 13.2107 16.9561L8.54384 14.5455L3.87699 16.9561C3.68731 17.0552 3.45491 17.0384 3.28061 16.9141C3.10631 16.7882 3.01915 16.5784 3.05504 16.3686L3.94535 11.2653L0.170514 7.64936C0.0167179 7.50163 -0.0396739 7.28005 0.0286798 7.0786C0.0953247 6.87716 0.271335 6.72943 0.484941 6.69921L5.70375 5.95554L8.03632 1.31056C8.13201 1.12087 8.32853 1 8.54384 1C8.76087 1 8.95738 1.12087 9.05308 1.31056L11.3856 5.95554L16.6027 6.69921C16.8164 6.72943 16.9941 6.87716 17.0607 7.0786C17.1274 7.28005 17.071 7.50163 16.9172 7.64936L13.1423 11.2653L14.0326 16.3686C14.0702 16.5784 13.9814 16.7882 13.8071 16.9141C13.7097 16.9847 13.5918 17.0199 13.4739 17.0199Z" fill="#E0DBD1"/>
<path d="M17.5971 3.93815C18.1812 3.35399 18.1518 2.41347 17.5761 1.83778C17.0004 1.26209 16.0599 1.23267 15.4758 1.81683L1.29173 16.0009C0.70757 16.585 0.736988 17.5255 1.31268 18.1012C1.88837 18.6769 2.82889 18.7063 3.41305 18.1222L17.5971 3.93815Z" fill="#E0DBD1" stroke="#F9F7F2" stroke-linecap="round"/>
</svg>
